<?xml version="1.0" standalone="no"?>
<!DOCTYPE svg PUBLIC "-//W3C//DTD SVG 20010904//EN"
 "http://www.w3.org/TR/2001/REC-SVG-20010904/DTD/svg10.dtd">
<svg version="1.0" xmlns="http://www.w3.org/2000/svg"
 width="1280.000000pt" height="1280.000000pt" viewBox="0 0 1280.000000 1280.000000"
 preserveAspectRatio="xMidYMid meet">
<metadata>
Created by potrace 1.16, written by Peter Selinger 2001-2019
</metadata>
<g transform="translate(0.000000,1280.000000) scale(0.100000,-0.100000)"
fill="#000000" stroke="none">
<path d="M8896 12784 c-103 -23 -216 -67 -308 -120 -78 -45 -249 -214 -2861
-2824 -1529 -1526 -2801 -2804 -2829 -2840 -64 -83 -141 -241 -170 -350 -19
-72 -22 -110 -22 -250 0 -140 3 -178 22 -250 29 -109 106 -267 170 -350 28
-36 1298 -1312 2824 -2836 2549 -2548 2780 -2776 2857 -2822 96 -59 214 -104
331 -128 113 -22 343 -15 453 14 347 94 614 366 709 720 29 110 35 309 14 425
-29 155 -87 289 -179 417 -22 30 -1109 1125 -2416 2432 l-2376 2378 2386 2387
c2566 2568 2445 2442 2519 2620 52 124 72 216 77 358 10 263 -65 488 -232 688
-116 140 -318 268 -500 318 -107 29 -366 36 -469 13z"/>
</g>
</svg>
